M48
;GenerationSoftware,Autodesk,EAGLE,9.7.0*%
;CreationDate,2025-06-07T08:09:01Z*%
FMAT,2
ICI,OFF
METRIC,TZ,000.000
T5C0.600
T4C0.700
T3C0.850
T2C1.000
T1C1.016
%
G90
M71
T1
X19730Y3190
X7530Y47400
X10070Y47400
X10530Y4400
X11070Y14400
X8530Y14400
X13070Y4400
X88000Y42730
X88000Y45270
X86500Y17730
X86500Y20270
X100000Y24810
X100000Y22270
X100000Y19730
X100000Y17190
X51500Y20310
X51500Y17770
X51500Y15230
X51500Y12690
X22270Y3190
T2
X7300Y53400
X4800Y53400
T3
X8530Y18650
X11070Y18650
X7530Y42900
X10070Y42900
X11820Y10150
X9280Y10150
X6820Y7150
X4280Y7150
T4
X81740Y10830
X81740Y13370
X81740Y15910
X81740Y18450
X81740Y20990
X81740Y23530
X81740Y26070
X81740Y28610
X81740Y31150
X81740Y33690
X81740Y36230
X81740Y38770
X81740Y41310
X81740Y43850
X81740Y46390
X81740Y48930
X81740Y51470
X50760Y35450
X50760Y37990
X50760Y40530
X50760Y43070
X50760Y45610
X50760Y48150
X50760Y50690
X50760Y53230
X50760Y55770
X56340Y15910
X56340Y51470
X56340Y48930
X56340Y46390
X56340Y43850
X56340Y41310
X56340Y38770
X56340Y36230
X56340Y33690
X56340Y31150
X56340Y28610
X56340Y26070
X56340Y23530
X56340Y20990
X56340Y18450
X56340Y13370
X56340Y10830
X56340Y8290
X56340Y5750
X81740Y5750
X81740Y8290
T5
X99800Y45020
X99800Y47560
X94800Y50100
X94800Y47560
X94800Y45020
X94800Y42480
X94800Y39940
X34260Y13800
X30340Y18860
X30340Y21400
X30340Y23940
X27800Y18860
X27800Y21400
X27800Y23940
X43260Y21400
X43260Y23940
X45800Y18860
X45800Y21400
X45800Y23940
X14300Y38150
X4800Y38150
X43260Y18860
X4800Y22650
X14300Y22650
X39340Y13800
X36800Y13800
X94800Y32400
X94800Y29860
X94800Y27320
X94800Y24780
X94800Y22240
X94800Y19700
X94800Y17160
X99800Y39940
X99800Y42480
X94800Y37400
M30