G04 EAGLE Gerber RS-274X export*
G75*
%MOMM*%
%FSLAX34Y34*%
%LPD*%
%INTop Copper*%
%IPPOS*%
%AMOC8*
5,1,8,0,0,1.08239X$1,22.5*%
G01*
G04 Define Apertures*
%ADD10R,1.208000X1.208000*%
%ADD11C,1.208000*%
%ADD12R,1.108000X1.108000*%
%ADD13C,1.108000*%
%ADD14C,1.508000*%
%ADD15C,1.879600*%
%ADD16C,1.450000*%
%ADD17R,1.000000X1.500000*%
%ADD18R,3.300000X1.500000*%
%ADD19C,1.524000*%
%ADD20C,0.220000*%
%ADD21C,1.016000*%
%ADD22C,0.650000*%
%ADD23C,0.750000*%
%ADD24C,0.665000*%
%ADD25C,0.152400*%
%ADD26C,0.800000*%
%ADD27C,0.812800*%
G36*
X1025400Y9477D02*
X1023840Y9160D01*
X230168Y9160D01*
X228786Y9406D01*
X227432Y10243D01*
X226511Y11541D01*
X226169Y13096D01*
X226461Y14661D01*
X227340Y15988D01*
X230452Y19100D01*
X231844Y22461D01*
X231844Y31485D01*
X232136Y32986D01*
X233016Y34313D01*
X234737Y36035D01*
X235588Y38089D01*
X235588Y61740D01*
X235524Y62062D01*
X235524Y105439D01*
X234683Y107469D01*
X209196Y132957D01*
X208341Y134225D01*
X208024Y135785D01*
X208024Y151368D01*
X208316Y152869D01*
X209196Y154196D01*
X222401Y167402D01*
X223669Y168256D01*
X225229Y168573D01*
X231604Y168573D01*
X234031Y169578D01*
X235889Y171436D01*
X236894Y173863D01*
X236894Y221608D01*
X237186Y223110D01*
X238066Y224437D01*
X241774Y228145D01*
X242925Y228948D01*
X244475Y229314D01*
X246044Y229047D01*
X247385Y228189D01*
X248285Y226876D01*
X248602Y225316D01*
X248602Y112936D01*
X249001Y111972D01*
X318772Y42201D01*
X319736Y41802D01*
X708648Y41802D01*
X709612Y42201D01*
X797315Y129904D01*
X798584Y130759D01*
X800144Y131076D01*
X807670Y131076D01*
X809171Y130784D01*
X810498Y129904D01*
X813115Y127288D01*
X815895Y126136D01*
X818905Y126136D01*
X821685Y127288D01*
X823812Y129415D01*
X824964Y132195D01*
X824964Y135205D01*
X823812Y137985D01*
X821685Y140112D01*
X818905Y141264D01*
X815895Y141264D01*
X813115Y140112D01*
X810498Y137496D01*
X809230Y136641D01*
X807670Y136324D01*
X796878Y136324D01*
X795914Y135925D01*
X708211Y48222D01*
X706942Y47367D01*
X705382Y47050D01*
X573245Y47050D01*
X571833Y47308D01*
X570485Y48155D01*
X569574Y49461D01*
X569245Y51018D01*
X569550Y52581D01*
X570964Y55995D01*
X570964Y59005D01*
X569812Y61785D01*
X567685Y63912D01*
X564905Y65064D01*
X561895Y65064D01*
X559115Y63912D01*
X556988Y61785D01*
X555836Y59005D01*
X555836Y55995D01*
X557250Y52581D01*
X557553Y51178D01*
X557286Y49608D01*
X556428Y48267D01*
X555115Y47367D01*
X553555Y47050D01*
X521624Y47050D01*
X520182Y47319D01*
X518841Y48177D01*
X517941Y49490D01*
X517624Y51050D01*
X517624Y113756D01*
X517893Y115198D01*
X518751Y116539D01*
X520064Y117439D01*
X521624Y117756D01*
X524439Y117756D01*
X527800Y119148D01*
X530372Y121720D01*
X531764Y125081D01*
X531764Y128719D01*
X530372Y132080D01*
X527800Y134652D01*
X524776Y135905D01*
X523593Y136661D01*
X522662Y137952D01*
X522308Y139504D01*
X522587Y141072D01*
X523456Y142406D01*
X524776Y143296D01*
X527800Y144548D01*
X530372Y147120D01*
X530408Y147207D01*
X531230Y148459D01*
X532543Y149359D01*
X534103Y149676D01*
X544622Y149676D01*
X545586Y150075D01*
X550815Y155304D01*
X552084Y156159D01*
X553644Y156476D01*
X553670Y156476D01*
X555171Y156184D01*
X556498Y155304D01*
X559115Y152688D01*
X561895Y151536D01*
X564905Y151536D01*
X567685Y152688D01*
X569812Y154815D01*
X570964Y157595D01*
X570964Y160605D01*
X569812Y163385D01*
X567685Y165512D01*
X564905Y166664D01*
X561895Y166664D01*
X559115Y165512D01*
X556498Y162896D01*
X555230Y162041D01*
X553670Y161724D01*
X550378Y161724D01*
X549414Y161325D01*
X544185Y156096D01*
X542916Y155241D01*
X541356Y154924D01*
X534103Y154924D01*
X532632Y155205D01*
X531297Y156073D01*
X530408Y157393D01*
X530372Y157480D01*
X527800Y160052D01*
X524776Y161305D01*
X523593Y162061D01*
X522662Y163352D01*
X522308Y164904D01*
X522587Y166472D01*
X523456Y167806D01*
X524776Y168696D01*
X527800Y169948D01*
X530372Y172520D01*
X531764Y175881D01*
X531764Y179519D01*
X531693Y179690D01*
X531389Y181157D01*
X531681Y182722D01*
X532560Y184049D01*
X552115Y203604D01*
X553384Y204459D01*
X554944Y204776D01*
X556170Y204776D01*
X557671Y204484D01*
X558998Y203604D01*
X559115Y203488D01*
X561895Y202336D01*
X564905Y202336D01*
X567685Y203488D01*
X569812Y205615D01*
X570964Y208395D01*
X570964Y211405D01*
X569812Y214185D01*
X567685Y216312D01*
X564905Y217464D01*
X561895Y217464D01*
X559115Y216312D01*
X556988Y214185D01*
X556287Y212493D01*
X555465Y211241D01*
X554152Y210341D01*
X552591Y210024D01*
X551678Y210024D01*
X550714Y209625D01*
X538484Y197395D01*
X537361Y196605D01*
X535815Y196226D01*
X534243Y196481D01*
X532895Y197328D01*
X531985Y198634D01*
X531655Y200191D01*
X531764Y200749D01*
X531764Y204919D01*
X530372Y208280D01*
X529960Y208692D01*
X529130Y209902D01*
X528789Y211457D01*
X529081Y213022D01*
X529960Y214349D01*
X544615Y229004D01*
X545884Y229859D01*
X547444Y230176D01*
X556170Y230176D01*
X557671Y229884D01*
X558998Y229004D01*
X559115Y228888D01*
X561895Y227736D01*
X564905Y227736D01*
X567685Y228888D01*
X569812Y231015D01*
X570964Y233795D01*
X570964Y236805D01*
X569812Y239585D01*
X567685Y241712D01*
X564905Y242864D01*
X561895Y242864D01*
X559115Y241712D01*
X556988Y239585D01*
X556287Y237893D01*
X555465Y236641D01*
X554152Y235741D01*
X552591Y235424D01*
X544178Y235424D01*
X543214Y235025D01*
X521605Y213416D01*
X520336Y212561D01*
X518776Y212244D01*
X505561Y212244D01*
X502200Y210852D01*
X499628Y208280D01*
X498236Y204919D01*
X498236Y201281D01*
X498307Y201110D01*
X498611Y199643D01*
X498319Y198078D01*
X497440Y196751D01*
X475259Y174570D01*
X473990Y173715D01*
X472430Y173398D01*
X462523Y173398D01*
X461170Y173634D01*
X459809Y174459D01*
X458878Y175750D01*
X458524Y177302D01*
X458803Y178870D01*
X459672Y180204D01*
X460992Y181094D01*
X462577Y181750D01*
X464850Y184023D01*
X466080Y186993D01*
X466080Y187838D01*
X449920Y187838D01*
X449920Y186993D01*
X451150Y184023D01*
X453423Y181750D01*
X455008Y181094D01*
X456167Y180358D01*
X457109Y179075D01*
X457475Y177526D01*
X457209Y175956D01*
X456351Y174615D01*
X455038Y173715D01*
X453477Y173398D01*
X336655Y173398D01*
X335234Y173659D01*
X333888Y174509D01*
X332981Y175817D01*
X321718Y201997D01*
X321697Y202047D01*
X321508Y202504D01*
X321152Y202850D01*
X321114Y202888D01*
X320764Y203238D01*
X320304Y203421D01*
X320253Y203441D01*
X319795Y203631D01*
X319300Y203624D01*
X319246Y203624D01*
X312671Y203624D01*
X311289Y203870D01*
X309934Y204707D01*
X309013Y206005D01*
X308671Y207560D01*
X308963Y209125D01*
X309133Y209381D01*
X310464Y212595D01*
X310464Y215405D01*
X309389Y218001D01*
X307401Y219989D01*
X304805Y221064D01*
X301995Y221064D01*
X299399Y219989D01*
X297411Y218001D01*
X296336Y215405D01*
X296336Y212595D01*
X297612Y209514D01*
X297761Y209301D01*
X298127Y207752D01*
X297860Y206182D01*
X297002Y204841D01*
X295689Y203941D01*
X294129Y203624D01*
X291318Y203624D01*
X289817Y203916D01*
X288489Y204796D01*
X285673Y207612D01*
X284831Y208851D01*
X284501Y210409D01*
X284806Y211971D01*
X285064Y212595D01*
X285064Y215405D01*
X283989Y218001D01*
X282001Y219989D01*
X279405Y221064D01*
X276595Y221064D01*
X273999Y219989D01*
X272011Y218001D01*
X270936Y215405D01*
X270936Y212595D01*
X272011Y209999D01*
X273999Y208011D01*
X276595Y206936D01*
X277270Y206936D01*
X278771Y206644D01*
X280099Y205764D01*
X283612Y202251D01*
X284402Y201128D01*
X284781Y199582D01*
X284526Y198010D01*
X283679Y196663D01*
X282373Y195752D01*
X280816Y195423D01*
X279577Y195664D01*
X276595Y195664D01*
X273999Y194589D01*
X272011Y192601D01*
X270936Y190005D01*
X270936Y187195D01*
X272011Y184599D01*
X274204Y182406D01*
X275059Y181137D01*
X275376Y179577D01*
X275376Y178078D01*
X275775Y177114D01*
X303514Y149375D01*
X304478Y148976D01*
X333929Y148976D01*
X335311Y148730D01*
X336666Y147893D01*
X337587Y146595D01*
X337929Y145040D01*
X337637Y143475D01*
X336758Y142148D01*
X336611Y142001D01*
X335536Y139405D01*
X335536Y136595D01*
X336611Y133999D01*
X338599Y132011D01*
X341195Y130936D01*
X344005Y130936D01*
X346601Y132011D01*
X348589Y133999D01*
X349664Y136595D01*
X349664Y139405D01*
X348589Y142001D01*
X348442Y142148D01*
X347639Y143299D01*
X347273Y144849D01*
X347540Y146418D01*
X348398Y147759D01*
X349711Y148659D01*
X351271Y148976D01*
X359329Y148976D01*
X360711Y148730D01*
X362066Y147893D01*
X362987Y146595D01*
X363329Y145040D01*
X363037Y143475D01*
X362158Y142148D01*
X362011Y142001D01*
X360936Y139405D01*
X360936Y136595D01*
X362011Y133999D01*
X363999Y132011D01*
X366595Y130936D01*
X369405Y130936D01*
X372001Y132011D01*
X373989Y133999D01*
X375064Y136595D01*
X375064Y139405D01*
X373989Y142001D01*
X373842Y142148D01*
X373039Y143299D01*
X372673Y144849D01*
X372940Y146418D01*
X373798Y147759D01*
X375111Y148659D01*
X376671Y148976D01*
X384729Y148976D01*
X386111Y148730D01*
X387466Y147893D01*
X388387Y146595D01*
X388729Y145040D01*
X388437Y143475D01*
X387558Y142148D01*
X387411Y142001D01*
X386336Y139405D01*
X386336Y136595D01*
X387411Y133999D01*
X389399Y132011D01*
X391995Y130936D01*
X394805Y130936D01*
X397401Y132011D01*
X399389Y133999D01*
X400464Y136595D01*
X400464Y139405D01*
X399389Y142001D01*
X399242Y142148D01*
X398439Y143299D01*
X398073Y144849D01*
X398340Y146418D01*
X399198Y147759D01*
X400511Y148659D01*
X402071Y148976D01*
X496187Y148976D01*
X497658Y148695D01*
X498993Y147827D01*
X499139Y147609D01*
X502200Y144548D01*
X505224Y143296D01*
X506407Y142539D01*
X507338Y141248D01*
X507692Y139696D01*
X507413Y138128D01*
X506544Y136794D01*
X505224Y135905D01*
X502200Y134652D01*
X499628Y132080D01*
X498236Y128719D01*
X498236Y125081D01*
X499628Y121720D01*
X502200Y119148D01*
X505561Y117756D01*
X508376Y117756D01*
X509818Y117487D01*
X511159Y116629D01*
X512059Y115316D01*
X512376Y113756D01*
X512376Y51050D01*
X512107Y49608D01*
X511249Y48267D01*
X509936Y47367D01*
X508376Y47050D01*
X323002Y47050D01*
X321501Y47342D01*
X320173Y48222D01*
X255022Y113373D01*
X254167Y114642D01*
X253850Y116202D01*
X253850Y229882D01*
X254142Y231383D01*
X255022Y232711D01*
X257915Y235604D01*
X259184Y236459D01*
X260744Y236776D01*
X266936Y236776D01*
X268378Y236507D01*
X269719Y235649D01*
X270619Y234336D01*
X270821Y233344D01*
X271829Y232336D01*
X284171Y232336D01*
X285064Y233229D01*
X285064Y243622D01*
X285333Y245064D01*
X286191Y246405D01*
X287504Y247305D01*
X289064Y247622D01*
X293173Y247622D01*
X294585Y247364D01*
X295933Y246517D01*
X296844Y245211D01*
X297173Y243654D01*
X296869Y242091D01*
X296336Y240805D01*
X296336Y237995D01*
X297411Y235399D01*
X299399Y233411D01*
X301995Y232336D01*
X304805Y232336D01*
X307401Y233411D01*
X309389Y235399D01*
X310464Y237995D01*
X310464Y240805D01*
X309931Y242091D01*
X309629Y243495D01*
X309896Y245064D01*
X310754Y246405D01*
X312067Y247305D01*
X313627Y247622D01*
X422373Y247622D01*
X423785Y247364D01*
X425133Y246517D01*
X426044Y245211D01*
X426373Y243654D01*
X426069Y242091D01*
X425536Y240805D01*
X425536Y237995D01*
X426611Y235399D01*
X428599Y233411D01*
X431195Y232336D01*
X434005Y232336D01*
X436601Y233411D01*
X438589Y235399D01*
X439664Y237995D01*
X439664Y240805D01*
X439131Y242091D01*
X438829Y243495D01*
X439096Y245064D01*
X439954Y246405D01*
X441267Y247305D01*
X442827Y247622D01*
X447773Y247622D01*
X449185Y247364D01*
X450533Y246517D01*
X451444Y245211D01*
X451773Y243654D01*
X451469Y242091D01*
X450936Y240805D01*
X450936Y237995D01*
X452011Y235399D01*
X453999Y233411D01*
X456595Y232336D01*
X459405Y232336D01*
X461691Y233283D01*
X463095Y233585D01*
X464664Y233319D01*
X466005Y232461D01*
X466905Y231148D01*
X467222Y229587D01*
X467222Y224604D01*
X466953Y223162D01*
X466095Y221821D01*
X464782Y220921D01*
X463222Y220604D01*
X461311Y220604D01*
X459781Y220909D01*
X459405Y221064D01*
X456595Y221064D01*
X453999Y219989D01*
X452011Y218001D01*
X450936Y215405D01*
X450936Y212595D01*
X452011Y209999D01*
X453999Y208011D01*
X456595Y206936D01*
X459405Y206936D01*
X459781Y207092D01*
X461311Y207396D01*
X469981Y207396D01*
X472409Y208401D01*
X479425Y215418D01*
X480430Y217845D01*
X480430Y249834D01*
X480722Y251335D01*
X481602Y252662D01*
X513199Y284259D01*
X514204Y286686D01*
X514204Y345212D01*
X514496Y346713D01*
X515164Y347721D01*
X515164Y361171D01*
X514271Y362064D01*
X500929Y362064D01*
X500036Y361171D01*
X500036Y347726D01*
X500679Y346772D01*
X500996Y345212D01*
X500996Y292392D01*
X500704Y290891D01*
X499824Y289564D01*
X472262Y262002D01*
X470994Y261147D01*
X469434Y260830D01*
X257202Y260830D01*
X254775Y259825D01*
X224691Y229742D01*
X223686Y227314D01*
X223686Y185781D01*
X223417Y184339D01*
X222559Y182998D01*
X221246Y182098D01*
X219686Y181781D01*
X219523Y181781D01*
X217096Y180776D01*
X190856Y154536D01*
X189588Y153681D01*
X188028Y153364D01*
X172869Y153364D01*
X171976Y152471D01*
X171976Y136209D01*
X172869Y135316D01*
X189555Y135316D01*
X191056Y135024D01*
X192383Y134144D01*
X223304Y103223D01*
X224159Y101955D01*
X224476Y100395D01*
X224476Y94176D01*
X224230Y92794D01*
X223393Y91439D01*
X222095Y90518D01*
X220540Y90177D01*
X219535Y90364D01*
X214884Y90364D01*
X213383Y90656D01*
X212056Y91536D01*
X190544Y113047D01*
X188790Y113774D01*
X126974Y113774D01*
X125532Y114043D01*
X124191Y114901D01*
X123291Y116214D01*
X122974Y117774D01*
X122974Y122450D01*
X122247Y124204D01*
X117127Y129324D01*
X116298Y130534D01*
X115956Y132089D01*
X116248Y133654D01*
X117127Y134981D01*
X119959Y137813D01*
X121622Y141828D01*
X121622Y146172D01*
X119959Y150187D01*
X116646Y153500D01*
X115791Y154769D01*
X115474Y156329D01*
X115474Y177209D01*
X115766Y178710D01*
X116646Y180037D01*
X118138Y181530D01*
X119474Y184755D01*
X119474Y188245D01*
X118138Y191470D01*
X116646Y192963D01*
X115791Y194231D01*
X115474Y195791D01*
X115474Y221817D01*
X115490Y222169D01*
X115559Y222950D01*
X115259Y223673D01*
X115138Y224005D01*
X114308Y226647D01*
X114221Y227217D01*
X113909Y227969D01*
X113789Y228301D01*
X113554Y229048D01*
X113000Y229602D01*
X112762Y229862D01*
X112259Y230463D01*
X111535Y230762D01*
X111215Y230912D01*
X110521Y231274D01*
X109738Y231274D01*
X109385Y231290D01*
X108574Y231361D01*
X108005Y231274D01*
X54873Y231274D01*
X53372Y231566D01*
X52044Y232446D01*
X52001Y232489D01*
X49405Y233564D01*
X46595Y233564D01*
X43999Y232489D01*
X42011Y230501D01*
X40936Y227905D01*
X40936Y225095D01*
X42011Y222499D01*
X43999Y220511D01*
X46595Y219436D01*
X49405Y219436D01*
X52001Y220511D01*
X52044Y220554D01*
X53313Y221409D01*
X54873Y221726D01*
X101926Y221726D01*
X103368Y221457D01*
X104709Y220599D01*
X105609Y219286D01*
X105926Y217726D01*
X105926Y195791D01*
X105634Y194290D01*
X104754Y192963D01*
X103262Y191470D01*
X102245Y189016D01*
X101489Y187834D01*
X100198Y186902D01*
X98645Y186548D01*
X97078Y186828D01*
X95744Y187696D01*
X94854Y189016D01*
X93600Y192046D01*
X90846Y194800D01*
X87247Y196290D01*
X86062Y196290D01*
X86062Y176710D01*
X87247Y176710D01*
X90846Y178200D01*
X93600Y180954D01*
X94854Y183984D01*
X95611Y185166D01*
X96902Y186098D01*
X98454Y186452D01*
X100021Y186172D01*
X101356Y185304D01*
X102245Y183984D01*
X103262Y181530D01*
X104754Y180037D01*
X105609Y178769D01*
X105926Y177209D01*
X105926Y156329D01*
X105634Y154828D01*
X104754Y153500D01*
X101547Y150293D01*
X100337Y149463D01*
X98782Y149122D01*
X97217Y149414D01*
X95890Y150293D01*
X92062Y154121D01*
X87675Y155938D01*
X86062Y155938D01*
X86062Y132062D01*
X87675Y132062D01*
X92062Y133879D01*
X95890Y137707D01*
X97100Y138537D01*
X98655Y138878D01*
X100220Y138586D01*
X101547Y137707D01*
X104754Y134500D01*
X105609Y133231D01*
X105926Y131671D01*
X105926Y128050D01*
X106653Y126296D01*
X112254Y120694D01*
X113109Y119426D01*
X113426Y117866D01*
X113426Y110791D01*
X113134Y109290D01*
X112254Y107963D01*
X110762Y106470D01*
X109745Y104016D01*
X108989Y102834D01*
X107698Y101902D01*
X106145Y101548D01*
X104578Y101828D01*
X103244Y102696D01*
X102354Y104016D01*
X101100Y107046D01*
X98346Y109800D01*
X94747Y111290D01*
X93562Y111290D01*
X93562Y91710D01*
X94747Y91710D01*
X98346Y93200D01*
X101100Y95954D01*
X102354Y98984D01*
X103111Y100166D01*
X104402Y101098D01*
X105954Y101452D01*
X107521Y101172D01*
X108856Y100304D01*
X109745Y98984D01*
X110762Y96530D01*
X113230Y94062D01*
X116455Y92726D01*
X119945Y92726D01*
X123170Y94062D01*
X125638Y96530D01*
X127117Y100100D01*
X127266Y100867D01*
X128146Y102194D01*
X129006Y103054D01*
X130274Y103909D01*
X131834Y104226D01*
X184206Y104226D01*
X185707Y103934D01*
X187034Y103054D01*
X192896Y97192D01*
X193699Y96041D01*
X194066Y94492D01*
X193799Y92922D01*
X192941Y91581D01*
X191628Y90681D01*
X190068Y90364D01*
X184369Y90364D01*
X183476Y89471D01*
X183476Y71552D01*
X183184Y70051D01*
X182304Y68724D01*
X168568Y54988D01*
X167300Y54133D01*
X165740Y53816D01*
X136338Y53816D01*
X134808Y54120D01*
X132873Y54922D01*
X129247Y54922D01*
X127746Y55214D01*
X126419Y56094D01*
X106329Y76183D01*
X104299Y77024D01*
X76741Y77024D01*
X75240Y77316D01*
X73913Y78196D01*
X73170Y78938D01*
X69945Y80274D01*
X66455Y80274D01*
X63230Y78938D01*
X60762Y76470D01*
X59745Y74016D01*
X58989Y72834D01*
X57698Y71902D01*
X56145Y71548D01*
X54578Y71828D01*
X53244Y72696D01*
X52354Y74016D01*
X51100Y77046D01*
X48346Y79800D01*
X44747Y81290D01*
X43562Y81290D01*
X43562Y61710D01*
X44747Y61710D01*
X48346Y63200D01*
X51100Y65954D01*
X52354Y68984D01*
X53111Y70166D01*
X54402Y71098D01*
X55954Y71452D01*
X57521Y71172D01*
X58856Y70304D01*
X59745Y68984D01*
X60762Y66530D01*
X63230Y64062D01*
X66455Y62726D01*
X69945Y62726D01*
X73170Y64062D01*
X73913Y64804D01*
X75181Y65659D01*
X76741Y65976D01*
X99255Y65976D01*
X100756Y65684D01*
X102083Y64804D01*
X104367Y62521D01*
X105183Y61341D01*
X105537Y59789D01*
X105258Y58221D01*
X104389Y56887D01*
X103069Y55997D01*
X98538Y54121D01*
X95179Y50762D01*
X93362Y46375D01*
X93362Y44762D01*
X106062Y44762D01*
X106062Y43238D01*
X93362Y43238D01*
X93362Y41625D01*
X95396Y36715D01*
X95699Y35312D01*
X95432Y33742D01*
X94574Y32401D01*
X93261Y31501D01*
X91701Y31184D01*
X43982Y31184D01*
X42481Y31476D01*
X41154Y32356D01*
X21722Y51788D01*
X20867Y53056D01*
X20550Y54616D01*
X20550Y564425D01*
X20842Y565926D01*
X21722Y567253D01*
X28351Y573882D01*
X29619Y574737D01*
X31179Y575054D01*
X553476Y575054D01*
X554918Y574785D01*
X556259Y573927D01*
X557159Y572614D01*
X557476Y571054D01*
X557476Y524668D01*
X557184Y523167D01*
X556304Y521840D01*
X555836Y521371D01*
X555836Y508029D01*
X556729Y507136D01*
X566034Y507136D01*
X568001Y506619D01*
X592000Y493066D01*
X805610Y372432D01*
X806174Y372003D01*
X806681Y371793D01*
X807117Y371581D01*
X807956Y371107D01*
X808749Y370519D01*
X809659Y369214D01*
X809989Y367656D01*
X809684Y366093D01*
X808820Y364007D01*
X808820Y363062D01*
X825980Y363062D01*
X825980Y364007D01*
X825281Y365695D01*
X824978Y367099D01*
X825245Y368668D01*
X826103Y370009D01*
X827416Y370909D01*
X828976Y371226D01*
X917396Y371226D01*
X918838Y370957D01*
X920179Y370099D01*
X921079Y368786D01*
X921396Y367226D01*
X921396Y322686D01*
X922401Y320259D01*
X924259Y318401D01*
X926686Y317396D01*
X939712Y317396D01*
X941213Y317104D01*
X941466Y316936D01*
X954171Y316936D01*
X955064Y317829D01*
X955064Y330171D01*
X954171Y331064D01*
X941484Y331064D01*
X941272Y330921D01*
X939712Y330604D01*
X938604Y330604D01*
X937162Y330873D01*
X935821Y331731D01*
X934921Y333044D01*
X934604Y334604D01*
X934604Y366312D01*
X934850Y367695D01*
X935687Y369049D01*
X936985Y369970D01*
X938540Y370312D01*
X940105Y370020D01*
X941432Y369141D01*
X943423Y367150D01*
X946393Y365920D01*
X947238Y365920D01*
X947238Y382080D01*
X946393Y382080D01*
X943423Y380850D01*
X941432Y378859D01*
X940281Y378056D01*
X938732Y377690D01*
X937162Y377957D01*
X935821Y378815D01*
X934921Y380128D01*
X934604Y381688D01*
X934604Y388796D01*
X934873Y390238D01*
X935731Y391579D01*
X937044Y392479D01*
X938604Y392796D01*
X944689Y392796D01*
X946219Y392492D01*
X946595Y392336D01*
X949405Y392336D01*
X952001Y393411D01*
X953989Y395399D01*
X955064Y397995D01*
X955064Y400805D01*
X953989Y403401D01*
X952001Y405389D01*
X949405Y406464D01*
X946595Y406464D01*
X946219Y406309D01*
X944689Y406004D01*
X926686Y406004D01*
X924259Y404999D01*
X922401Y403141D01*
X921396Y400714D01*
X921396Y384774D01*
X921127Y383332D01*
X920269Y381991D01*
X918956Y381091D01*
X917396Y380774D01*
X846842Y380774D01*
X845459Y381020D01*
X844105Y381857D01*
X843184Y383155D01*
X842842Y384710D01*
X843134Y386275D01*
X844013Y387602D01*
X873395Y416984D01*
X874664Y417839D01*
X876224Y418156D01*
X889439Y418156D01*
X892800Y419548D01*
X894256Y421004D01*
X895524Y421859D01*
X897084Y422176D01*
X938977Y422176D01*
X940478Y421884D01*
X941806Y421004D01*
X943999Y418811D01*
X946595Y417736D01*
X949405Y417736D01*
X952001Y418811D01*
X953989Y420799D01*
X955064Y423395D01*
X955064Y426205D01*
X953989Y428801D01*
X952001Y430789D01*
X949405Y431864D01*
X946595Y431864D01*
X943999Y430789D01*
X941806Y428596D01*
X940537Y427741D01*
X938977Y427424D01*
X900139Y427424D01*
X898667Y427705D01*
X897333Y428573D01*
X896443Y429893D01*
X895372Y432480D01*
X892800Y435052D01*
X889776Y436305D01*
X888593Y437061D01*
X887662Y438352D01*
X887308Y439904D01*
X887587Y441472D01*
X888456Y442806D01*
X889776Y443696D01*
X892800Y444948D01*
X895372Y447520D01*
X895470Y447757D01*
X896292Y449009D01*
X897605Y449909D01*
X899165Y450226D01*
X937671Y450226D01*
X939142Y449945D01*
X940476Y449077D01*
X941366Y447757D01*
X942011Y446199D01*
X943999Y444211D01*
X946595Y443136D01*
X949405Y443136D01*
X952001Y444211D01*
X953989Y446199D01*
X955064Y448795D01*
X955064Y451605D01*
X953989Y454201D01*
X952001Y456189D01*
X949405Y457264D01*
X946595Y457264D01*
X943425Y455951D01*
X943187Y455791D01*
X941627Y455474D01*
X899041Y455474D01*
X897569Y455755D01*
X896235Y456623D01*
X895423Y457829D01*
X892800Y460452D01*
X889439Y461844D01*
X870561Y461844D01*
X868792Y461111D01*
X867325Y460807D01*
X865760Y461099D01*
X864433Y461978D01*
X860286Y466125D01*
X859322Y466524D01*
X827130Y466524D01*
X825629Y466816D01*
X824302Y467696D01*
X821685Y470312D01*
X818905Y471464D01*
X815895Y471464D01*
X813115Y470312D01*
X810988Y468185D01*
X809836Y465405D01*
X809836Y462395D01*
X810988Y459615D01*
X813115Y457488D01*
X815895Y456336D01*
X818905Y456336D01*
X821685Y457488D01*
X824302Y460104D01*
X825570Y460959D01*
X827130Y461276D01*
X856056Y461276D01*
X857557Y460984D01*
X858885Y460104D01*
X862064Y456925D01*
X862919Y455656D01*
X863236Y454096D01*
X863236Y450881D01*
X864628Y447520D01*
X867200Y444948D01*
X870224Y443696D01*
X871407Y442939D01*
X872338Y441648D01*
X872692Y440096D01*
X872413Y438528D01*
X871544Y437194D01*
X870224Y436305D01*
X867200Y435052D01*
X864628Y432480D01*
X863236Y429119D01*
X863236Y425481D01*
X864628Y422120D01*
X865040Y421708D01*
X865870Y420498D01*
X866211Y418943D01*
X865920Y417378D01*
X865040Y416051D01*
X840485Y391496D01*
X839216Y390641D01*
X837656Y390324D01*
X827130Y390324D01*
X825629Y390616D01*
X824302Y391496D01*
X821685Y394112D01*
X818905Y395264D01*
X815895Y395264D01*
X813115Y394112D01*
X810988Y391985D01*
X809836Y389205D01*
X809836Y387863D01*
X809380Y386008D01*
X808376Y384773D01*
X806969Y384027D01*
X805383Y383889D01*
X803869Y384380D01*
X596695Y501380D01*
X572997Y514763D01*
X572181Y515373D01*
X571281Y516686D01*
X570964Y518246D01*
X570964Y521371D01*
X569696Y522640D01*
X568841Y523908D01*
X568524Y525468D01*
X568524Y581677D01*
X567434Y584309D01*
X567131Y585713D01*
X567398Y587282D01*
X568256Y588623D01*
X569569Y589523D01*
X571129Y589840D01*
X1023840Y589840D01*
X1025282Y589571D01*
X1026623Y588713D01*
X1027523Y587400D01*
X1027840Y585840D01*
X1027840Y545432D01*
X1027582Y544020D01*
X1026735Y542672D01*
X1025429Y541761D01*
X1023872Y541432D01*
X1022309Y541736D01*
X1021856Y541924D01*
X906878Y541924D01*
X905914Y541525D01*
X857485Y493096D01*
X856216Y492241D01*
X854656Y491924D01*
X827130Y491924D01*
X825629Y492216D01*
X824302Y493096D01*
X821685Y495712D01*
X818905Y496864D01*
X815895Y496864D01*
X813115Y495712D01*
X810988Y493585D01*
X809836Y490805D01*
X809836Y487795D01*
X810988Y485015D01*
X813115Y482888D01*
X815895Y481736D01*
X818905Y481736D01*
X821685Y482888D01*
X824302Y485504D01*
X825570Y486359D01*
X827130Y486676D01*
X857922Y486676D01*
X858886Y487075D01*
X907315Y535504D01*
X908584Y536359D01*
X910144Y536676D01*
X1014710Y536676D01*
X1016152Y536407D01*
X1017493Y535549D01*
X1018394Y534236D01*
X1018710Y532676D01*
X1018710Y259390D01*
X1018453Y257978D01*
X1017606Y256630D01*
X1016300Y255719D01*
X1014742Y255390D01*
X1013180Y255694D01*
X1009439Y257244D01*
X990561Y257244D01*
X987200Y255852D01*
X984628Y253280D01*
X984468Y252893D01*
X983646Y251641D01*
X982333Y250741D01*
X980773Y250424D01*
X957023Y250424D01*
X955522Y250716D01*
X954194Y251596D01*
X952001Y253789D01*
X949405Y254864D01*
X946595Y254864D01*
X943999Y253789D01*
X942689Y252479D01*
X941479Y251649D01*
X939924Y251308D01*
X938359Y251600D01*
X937032Y252479D01*
X851687Y337824D01*
X850386Y339125D01*
X849422Y339524D01*
X827130Y339524D01*
X825629Y339816D01*
X824302Y340696D01*
X821685Y343312D01*
X818905Y344464D01*
X815895Y344464D01*
X813115Y343312D01*
X810988Y341185D01*
X809836Y338405D01*
X809836Y335395D01*
X810988Y332615D01*
X813115Y330488D01*
X815895Y329336D01*
X818905Y329336D01*
X821685Y330488D01*
X824302Y333104D01*
X825570Y333959D01*
X827130Y334276D01*
X846156Y334276D01*
X847657Y333984D01*
X848985Y333104D01*
X936514Y245575D01*
X937478Y245176D01*
X938977Y245176D01*
X940478Y244884D01*
X941806Y244004D01*
X943999Y241811D01*
X946595Y240736D01*
X949405Y240736D01*
X952001Y241811D01*
X954194Y244004D01*
X955463Y244859D01*
X957023Y245176D01*
X981021Y245176D01*
X982493Y244895D01*
X983827Y244027D01*
X984458Y243091D01*
X987200Y240348D01*
X990224Y239096D01*
X991407Y238339D01*
X992338Y237048D01*
X992692Y235496D01*
X992413Y233928D01*
X991544Y232594D01*
X990224Y231705D01*
X987200Y230452D01*
X984628Y227880D01*
X984468Y227493D01*
X983646Y226241D01*
X982333Y225341D01*
X980773Y225024D01*
X957023Y225024D01*
X955522Y225316D01*
X954194Y226196D01*
X952001Y228389D01*
X949405Y229464D01*
X946595Y229464D01*
X943999Y228389D01*
X942011Y226401D01*
X940936Y223805D01*
X940936Y220995D01*
X942011Y218399D01*
X943999Y216411D01*
X946595Y215336D01*
X949405Y215336D01*
X952001Y216411D01*
X954194Y218604D01*
X955463Y219459D01*
X957023Y219776D01*
X981021Y219776D01*
X982493Y219495D01*
X983827Y218627D01*
X984458Y217691D01*
X987200Y214948D01*
X990224Y213696D01*
X991407Y212939D01*
X992338Y211648D01*
X992692Y210096D01*
X992413Y208528D01*
X991544Y207194D01*
X990224Y206305D01*
X987200Y205052D01*
X984628Y202480D01*
X984468Y202093D01*
X983646Y200841D01*
X982333Y199941D01*
X980773Y199624D01*
X957023Y199624D01*
X955522Y199916D01*
X954194Y200796D01*
X952001Y202989D01*
X949405Y204064D01*
X946595Y204064D01*
X943999Y202989D01*
X941806Y200796D01*
X940537Y199941D01*
X938977Y199624D01*
X934644Y199624D01*
X933143Y199916D01*
X931815Y200796D01*
X826136Y306475D01*
X825281Y307744D01*
X824964Y309304D01*
X824964Y313005D01*
X823812Y315785D01*
X821685Y317912D01*
X818905Y319064D01*
X815895Y319064D01*
X813115Y317912D01*
X810988Y315785D01*
X809836Y313005D01*
X809836Y309995D01*
X810988Y307215D01*
X813115Y305088D01*
X815895Y303936D01*
X819596Y303936D01*
X821097Y303644D01*
X822425Y302764D01*
X826230Y298959D01*
X827019Y297837D01*
X827398Y296290D01*
X827367Y296101D01*
X828932Y295809D01*
X830259Y294930D01*
X930414Y194775D01*
X931378Y194376D01*
X938977Y194376D01*
X940478Y194084D01*
X941806Y193204D01*
X943999Y191011D01*
X946595Y189936D01*
X949405Y189936D01*
X952001Y191011D01*
X954194Y193204D01*
X955463Y194059D01*
X957023Y194376D01*
X981021Y194376D01*
X982493Y194095D01*
X983827Y193227D01*
X984458Y192291D01*
X987200Y189548D01*
X990224Y188296D01*
X991407Y187539D01*
X992338Y186248D01*
X992692Y184696D01*
X992413Y183128D01*
X991544Y181794D01*
X990224Y180905D01*
X987200Y179652D01*
X984628Y177080D01*
X984468Y176693D01*
X983646Y175441D01*
X982333Y174541D01*
X980773Y174224D01*
X957023Y174224D01*
X955522Y174516D01*
X954194Y175396D01*
X952001Y177589D01*
X949405Y178664D01*
X946595Y178664D01*
X943999Y177589D01*
X941806Y175396D01*
X940537Y174541D01*
X938977Y174224D01*
X934644Y174224D01*
X933143Y174516D01*
X931815Y175396D01*
X826136Y281075D01*
X825281Y282344D01*
X824964Y283904D01*
X824964Y287605D01*
X823735Y290571D01*
X823436Y291910D01*
X823471Y292139D01*
X823433Y292131D01*
X821871Y292435D01*
X818905Y293664D01*
X815895Y293664D01*
X813115Y292512D01*
X810988Y290385D01*
X809836Y287605D01*
X809836Y284595D01*
X810988Y281815D01*
X813115Y279688D01*
X815895Y278536D01*
X819596Y278536D01*
X821097Y278244D01*
X822425Y277364D01*
X826230Y273559D01*
X827019Y272437D01*
X827398Y270890D01*
X827367Y270701D01*
X828932Y270409D01*
X830259Y269530D01*
X930414Y169375D01*
X931378Y168976D01*
X938977Y168976D01*
X940478Y168684D01*
X941806Y167804D01*
X943999Y165611D01*
X946595Y164536D01*
X949405Y164536D01*
X952001Y165611D01*
X954194Y167804D01*
X955463Y168659D01*
X957023Y168976D01*
X981021Y168976D01*
X982493Y168695D01*
X983827Y167827D01*
X984458Y166891D01*
X987200Y164148D01*
X990561Y162756D01*
X1009439Y162756D01*
X1012800Y164148D01*
X1015372Y166720D01*
X1016764Y170081D01*
X1016764Y173719D01*
X1015372Y177080D01*
X1012800Y179652D01*
X1009776Y180905D01*
X1008593Y181661D01*
X1007662Y182952D01*
X1007308Y184504D01*
X1007587Y186072D01*
X1008456Y187406D01*
X1009776Y188296D01*
X1012800Y189548D01*
X1015372Y192120D01*
X1016764Y195481D01*
X1016764Y199119D01*
X1015372Y202480D01*
X1012800Y205052D01*
X1009776Y206305D01*
X1008593Y207061D01*
X1007662Y208352D01*
X1007308Y209904D01*
X1007587Y211472D01*
X1008456Y212806D01*
X1009776Y213696D01*
X1012800Y214948D01*
X1015372Y217520D01*
X1016764Y220881D01*
X1016764Y224519D01*
X1015372Y227880D01*
X1014960Y228292D01*
X1014130Y229502D01*
X1013789Y231057D01*
X1014081Y232622D01*
X1014960Y233949D01*
X1021012Y240001D01*
X1022163Y240804D01*
X1023713Y241170D01*
X1025282Y240903D01*
X1026623Y240045D01*
X1027523Y238732D01*
X1027840Y237172D01*
X1027840Y13160D01*
X1027571Y11718D01*
X1026713Y10377D01*
X1025400Y9477D01*
G37*
%LPC*%
G36*
X506095Y550136D02*
X509105Y550136D01*
X511885Y551288D01*
X514012Y553415D01*
X515164Y556195D01*
X515164Y559205D01*
X514012Y561985D01*
X511885Y564112D01*
X509105Y565264D01*
X506095Y565264D01*
X503315Y564112D01*
X501188Y561985D01*
X500036Y559205D01*
X500036Y556195D01*
X501188Y553415D01*
X503315Y551288D01*
X506095Y550136D01*
G37*
G36*
X46595Y374436D02*
X49405Y374436D01*
X52575Y375749D01*
X52813Y375909D01*
X54373Y376226D01*
X86549Y376226D01*
X88487Y377029D01*
X105171Y393713D01*
X105974Y395651D01*
X105974Y420209D01*
X106266Y421710D01*
X107146Y423037D01*
X108138Y424030D01*
X109474Y427255D01*
X109474Y430745D01*
X108659Y432714D01*
X108354Y434213D01*
X108659Y435776D01*
X109450Y437686D01*
X109450Y463036D01*
X109516Y463757D01*
X109579Y464101D01*
X109539Y464286D01*
X109450Y465125D01*
X109450Y465788D01*
X109754Y467319D01*
X111622Y471828D01*
X111622Y476172D01*
X109754Y480681D01*
X109450Y482212D01*
X109450Y482875D01*
X109539Y483714D01*
X109579Y483899D01*
X109516Y484243D01*
X109450Y484964D01*
X109450Y505468D01*
X108445Y507895D01*
X83236Y533104D01*
X82381Y534372D01*
X82116Y535678D01*
X80684Y539134D01*
X78134Y541684D01*
X74803Y543064D01*
X71197Y543064D01*
X67866Y541684D01*
X65316Y539134D01*
X64745Y537757D01*
X63989Y536574D01*
X62698Y535643D01*
X61145Y535289D01*
X59578Y535568D01*
X58244Y536437D01*
X57354Y537757D01*
X56545Y539710D01*
X53710Y542545D01*
X50005Y544080D01*
X48762Y544080D01*
X48762Y523920D01*
X50005Y523920D01*
X53710Y525455D01*
X56545Y528290D01*
X57354Y530243D01*
X58111Y531426D01*
X59402Y532357D01*
X60954Y532711D01*
X62521Y532432D01*
X63856Y531563D01*
X64745Y530243D01*
X65316Y528866D01*
X67866Y526316D01*
X71312Y524888D01*
X72569Y524644D01*
X73896Y523764D01*
X95070Y502590D01*
X95925Y501322D01*
X96242Y499762D01*
X96242Y486645D01*
X95950Y485144D01*
X95070Y483816D01*
X91547Y480293D01*
X90337Y479463D01*
X88782Y479122D01*
X87217Y479414D01*
X85890Y480293D01*
X82062Y484121D01*
X77675Y485938D01*
X76062Y485938D01*
X76062Y462062D01*
X77675Y462062D01*
X82062Y463879D01*
X85890Y467707D01*
X87100Y468537D01*
X88655Y468878D01*
X90220Y468586D01*
X91547Y467707D01*
X95070Y464184D01*
X95925Y462915D01*
X96242Y461355D01*
X96242Y438607D01*
X95950Y437106D01*
X95070Y435779D01*
X93262Y433970D01*
X92245Y431516D01*
X91489Y430334D01*
X90198Y429402D01*
X88645Y429048D01*
X87078Y429328D01*
X85744Y430196D01*
X84854Y431516D01*
X83600Y434546D01*
X80846Y437300D01*
X77247Y438790D01*
X76062Y438790D01*
X76062Y419210D01*
X77247Y419210D01*
X80846Y420700D01*
X83600Y423454D01*
X84854Y426484D01*
X85611Y427666D01*
X86902Y428598D01*
X88454Y428952D01*
X90021Y428672D01*
X91356Y427804D01*
X92245Y426484D01*
X93262Y424030D01*
X94254Y423037D01*
X95109Y421769D01*
X95426Y420209D01*
X95426Y400541D01*
X95134Y399040D01*
X94254Y397713D01*
X84487Y387946D01*
X83219Y387091D01*
X81659Y386774D01*
X54373Y386774D01*
X52872Y387066D01*
X52623Y387231D01*
X49405Y388564D01*
X46595Y388564D01*
X43999Y387489D01*
X42011Y385501D01*
X40936Y382905D01*
X40936Y380095D01*
X42011Y377499D01*
X43999Y375511D01*
X46595Y374436D01*
G37*
G36*
X37920Y534762D02*
X47238Y534762D01*
X47238Y544080D01*
X45995Y544080D01*
X42290Y542545D01*
X39455Y539710D01*
X37920Y536005D01*
X37920Y534762D01*
G37*
G36*
X506095Y524736D02*
X509105Y524736D01*
X511885Y525888D01*
X514012Y528015D01*
X515164Y530795D01*
X515164Y533805D01*
X514012Y536585D01*
X511885Y538712D01*
X509105Y539864D01*
X506095Y539864D01*
X503315Y538712D01*
X501188Y536585D01*
X500036Y533805D01*
X500036Y530795D01*
X501188Y528015D01*
X503315Y525888D01*
X506095Y524736D01*
G37*
G36*
X45995Y523920D02*
X47238Y523920D01*
X47238Y533238D01*
X37920Y533238D01*
X37920Y531995D01*
X39455Y528290D01*
X42290Y525455D01*
X45995Y523920D01*
G37*
G36*
X818162Y515462D02*
X825980Y515462D01*
X825980Y516407D01*
X824674Y519560D01*
X822260Y521974D01*
X819107Y523280D01*
X818162Y523280D01*
X818162Y515462D01*
G37*
G36*
X808820Y515462D02*
X816638Y515462D01*
X816638Y523280D01*
X815693Y523280D01*
X812540Y521974D01*
X810126Y519560D01*
X808820Y516407D01*
X808820Y515462D01*
G37*
G36*
X499020Y507662D02*
X506838Y507662D01*
X506838Y515480D01*
X505893Y515480D01*
X502740Y514174D01*
X500326Y511760D01*
X499020Y508607D01*
X499020Y507662D01*
G37*
G36*
X508362Y507662D02*
X516180Y507662D01*
X516180Y508607D01*
X514874Y511760D01*
X512460Y514174D01*
X509307Y515480D01*
X508362Y515480D01*
X508362Y507662D01*
G37*
G36*
X818162Y506120D02*
X819107Y506120D01*
X822260Y507426D01*
X824674Y509840D01*
X825980Y512993D01*
X825980Y513938D01*
X818162Y513938D01*
X818162Y506120D01*
G37*
G36*
X815693Y506120D02*
X816638Y506120D01*
X816638Y513938D01*
X808820Y513938D01*
X808820Y512993D01*
X810126Y509840D01*
X812540Y507426D01*
X815693Y506120D01*
G37*
G36*
X941829Y493936D02*
X954171Y493936D01*
X955064Y494829D01*
X955064Y507171D01*
X954171Y508064D01*
X941829Y508064D01*
X940936Y507171D01*
X940936Y494829D01*
X941829Y493936D01*
G37*
G36*
X508362Y498320D02*
X509307Y498320D01*
X512460Y499626D01*
X514874Y502040D01*
X516180Y505193D01*
X516180Y506138D01*
X508362Y506138D01*
X508362Y498320D01*
G37*
G36*
X505893Y498320D02*
X506838Y498320D01*
X506838Y506138D01*
X499020Y506138D01*
X499020Y505193D01*
X500326Y502040D01*
X502740Y499626D01*
X505893Y498320D01*
G37*
G36*
X561895Y481736D02*
X564905Y481736D01*
X567685Y482888D01*
X569812Y485015D01*
X570964Y487795D01*
X570964Y490805D01*
X569812Y493585D01*
X567685Y495712D01*
X564905Y496864D01*
X561895Y496864D01*
X559115Y495712D01*
X556988Y493585D01*
X555836Y490805D01*
X555836Y487795D01*
X556988Y485015D01*
X559115Y482888D01*
X561895Y481736D01*
G37*
G36*
X506095Y473936D02*
X509105Y473936D01*
X511885Y475088D01*
X514012Y477215D01*
X515164Y479995D01*
X515164Y483005D01*
X514012Y485785D01*
X511885Y487912D01*
X509105Y489064D01*
X506095Y489064D01*
X503315Y487912D01*
X501188Y485785D01*
X500036Y483005D01*
X500036Y479995D01*
X501188Y477215D01*
X503315Y475088D01*
X506095Y473936D01*
G37*
G36*
X63362Y474762D02*
X74538Y474762D01*
X74538Y485938D01*
X72925Y485938D01*
X68538Y484121D01*
X65179Y480762D01*
X63362Y476375D01*
X63362Y474762D01*
G37*
G36*
X946595Y468536D02*
X949405Y468536D01*
X952001Y469611D01*
X953989Y471599D01*
X955064Y474195D01*
X955064Y477005D01*
X953989Y479601D01*
X952001Y481589D01*
X949405Y482664D01*
X946595Y482664D01*
X943999Y481589D01*
X942011Y479601D01*
X940936Y477005D01*
X940936Y474195D01*
X942011Y471599D01*
X943999Y469611D01*
X946595Y468536D01*
G37*
G36*
X991829Y468536D02*
X1004171Y468536D01*
X1005064Y469429D01*
X1005064Y481771D01*
X1004171Y482664D01*
X991829Y482664D01*
X990936Y481771D01*
X990936Y469429D01*
X991829Y468536D01*
G37*
G36*
X72925Y462062D02*
X74538Y462062D01*
X74538Y473238D01*
X63362Y473238D01*
X63362Y471625D01*
X65179Y467238D01*
X68538Y463879D01*
X72925Y462062D01*
G37*
G36*
X561895Y456336D02*
X564905Y456336D01*
X567685Y457488D01*
X569812Y459615D01*
X570964Y462395D01*
X570964Y465405D01*
X569812Y468185D01*
X567685Y470312D01*
X564905Y471464D01*
X561895Y471464D01*
X559115Y470312D01*
X556988Y468185D01*
X555836Y465405D01*
X555836Y462395D01*
X556988Y459615D01*
X559115Y457488D01*
X561895Y456336D01*
G37*
G36*
X506095Y448536D02*
X509105Y448536D01*
X511885Y449688D01*
X514012Y451815D01*
X515164Y454595D01*
X515164Y457605D01*
X514012Y460385D01*
X511885Y462512D01*
X509105Y463664D01*
X506095Y463664D01*
X503315Y462512D01*
X501188Y460385D01*
X500036Y457605D01*
X500036Y454595D01*
X501188Y451815D01*
X503315Y449688D01*
X506095Y448536D01*
G37*
G36*
X996595Y443136D02*
X999405Y443136D01*
X1002001Y444211D01*
X1003989Y446199D01*
X1005064Y448795D01*
X1005064Y451605D01*
X1003989Y454201D01*
X1002001Y456189D01*
X999405Y457264D01*
X996595Y457264D01*
X993999Y456189D01*
X992011Y454201D01*
X990936Y451605D01*
X990936Y448795D01*
X992011Y446199D01*
X993999Y444211D01*
X996595Y443136D01*
G37*
G36*
X561895Y430936D02*
X564905Y430936D01*
X567685Y432088D01*
X569812Y434215D01*
X570964Y436995D01*
X570964Y440005D01*
X569812Y442785D01*
X567685Y444912D01*
X564905Y446064D01*
X561895Y446064D01*
X559115Y444912D01*
X556988Y442785D01*
X555836Y440005D01*
X555836Y436995D01*
X556988Y434215D01*
X559115Y432088D01*
X561895Y430936D01*
G37*
G36*
X815895Y430936D02*
X818905Y430936D01*
X821685Y432088D01*
X823812Y434215D01*
X824964Y436995D01*
X824964Y440005D01*
X823812Y442785D01*
X821685Y444912D01*
X818905Y446064D01*
X815895Y446064D01*
X813115Y444912D01*
X810988Y442785D01*
X809836Y440005D01*
X809836Y436995D01*
X810988Y434215D01*
X813115Y432088D01*
X815895Y430936D01*
G37*
G36*
X65510Y429762D02*
X74538Y429762D01*
X74538Y438790D01*
X73353Y438790D01*
X69754Y437300D01*
X67000Y434546D01*
X65510Y430947D01*
X65510Y429762D01*
G37*
G36*
X506095Y423136D02*
X509105Y423136D01*
X511885Y424288D01*
X514012Y426415D01*
X515164Y429195D01*
X515164Y432205D01*
X514012Y434985D01*
X511885Y437112D01*
X509105Y438264D01*
X506095Y438264D01*
X503315Y437112D01*
X501188Y434985D01*
X500036Y432205D01*
X500036Y429195D01*
X501188Y426415D01*
X503315Y424288D01*
X506095Y423136D01*
G37*
G36*
X996595Y417736D02*
X999405Y417736D01*
X1002001Y418811D01*
X1003989Y420799D01*
X1005064Y423395D01*
X1005064Y426205D01*
X1003989Y428801D01*
X1002001Y430789D01*
X999405Y431864D01*
X996595Y431864D01*
X993999Y430789D01*
X992011Y428801D01*
X990936Y426205D01*
X990936Y423395D01*
X992011Y420799D01*
X993999Y418811D01*
X996595Y417736D01*
G37*
G36*
X73353Y419210D02*
X74538Y419210D01*
X74538Y428238D01*
X65510Y428238D01*
X65510Y427053D01*
X67000Y423454D01*
X69754Y420700D01*
X73353Y419210D01*
G37*
G36*
X815895Y405536D02*
X818905Y405536D01*
X821685Y406688D01*
X823812Y408815D01*
X824964Y411595D01*
X824964Y414605D01*
X823812Y417385D01*
X821685Y419512D01*
X818905Y420664D01*
X815895Y420664D01*
X813115Y419512D01*
X810988Y417385D01*
X809836Y414605D01*
X809836Y411595D01*
X810988Y408815D01*
X813115Y406688D01*
X815895Y405536D01*
G37*
G36*
X561895Y405536D02*
X564905Y405536D01*
X567685Y406688D01*
X569812Y408815D01*
X570964Y411595D01*
X570964Y414605D01*
X569812Y417385D01*
X567685Y419512D01*
X564905Y420664D01*
X561895Y420664D01*
X559115Y419512D01*
X556988Y417385D01*
X555836Y414605D01*
X555836Y411595D01*
X556988Y408815D01*
X559115Y406688D01*
X561895Y405536D01*
G37*
G36*
X506095Y397736D02*
X509105Y397736D01*
X511885Y398888D01*
X514012Y401015D01*
X515164Y403795D01*
X515164Y406805D01*
X514012Y409585D01*
X511885Y411712D01*
X509105Y412864D01*
X506095Y412864D01*
X503315Y411712D01*
X501188Y409585D01*
X500036Y406805D01*
X500036Y403795D01*
X501188Y401015D01*
X503315Y398888D01*
X506095Y397736D01*
G37*
G36*
X996595Y392336D02*
X999405Y392336D01*
X1002001Y393411D01*
X1003989Y395399D01*
X1005064Y397995D01*
X1005064Y400805D01*
X1003989Y403401D01*
X1002001Y405389D01*
X999405Y406464D01*
X996595Y406464D01*
X993999Y405389D01*
X992011Y403401D01*
X990936Y400805D01*
X990936Y397995D01*
X992011Y395399D01*
X993999Y393411D01*
X996595Y392336D01*
G37*
G36*
X561895Y380136D02*
X564905Y380136D01*
X567685Y381288D01*
X569812Y383415D01*
X570964Y386195D01*
X570964Y389205D01*
X569812Y391985D01*
X567685Y394112D01*
X564905Y395264D01*
X561895Y395264D01*
X559115Y394112D01*
X556988Y391985D01*
X555836Y389205D01*
X555836Y386195D01*
X556988Y383415D01*
X559115Y381288D01*
X561895Y380136D01*
G37*
G36*
X143762Y382262D02*
X151080Y382262D01*
X151080Y387545D01*
X150693Y388479D01*
X149979Y389193D01*
X149045Y389580D01*
X143762Y389580D01*
X143762Y382262D01*
G37*
G36*
X134920Y382262D02*
X142238Y382262D01*
X142238Y389580D01*
X136955Y389580D01*
X136021Y389193D01*
X135307Y388479D01*
X134920Y387545D01*
X134920Y382262D01*
G37*
G36*
X506095Y372336D02*
X509105Y372336D01*
X511885Y373488D01*
X514012Y375615D01*
X515164Y378395D01*
X515164Y381405D01*
X514012Y384185D01*
X511885Y386312D01*
X509105Y387464D01*
X506095Y387464D01*
X503315Y386312D01*
X501188Y384185D01*
X500036Y381405D01*
X500036Y378395D01*
X501188Y375615D01*
X503315Y373488D01*
X506095Y372336D01*
G37*
G36*
X948762Y374762D02*
X956080Y374762D01*
X956080Y375607D01*
X954850Y378577D01*
X952577Y380850D01*
X949607Y382080D01*
X948762Y382080D01*
X948762Y374762D01*
G37*
G36*
X143762Y373420D02*
X149045Y373420D01*
X149979Y373807D01*
X150693Y374521D01*
X151080Y375455D01*
X151080Y380738D01*
X143762Y380738D01*
X143762Y373420D01*
G37*
G36*
X136955Y373420D02*
X142238Y373420D01*
X142238Y380738D01*
X134920Y380738D01*
X134920Y375455D01*
X135307Y374521D01*
X136021Y373807D01*
X136955Y373420D01*
G37*
G36*
X948762Y365920D02*
X949607Y365920D01*
X952577Y367150D01*
X954850Y369423D01*
X956080Y372393D01*
X956080Y373238D01*
X948762Y373238D01*
X948762Y365920D01*
G37*
G36*
X561895Y354736D02*
X564905Y354736D01*
X567685Y355888D01*
X569812Y358015D01*
X570964Y360795D01*
X570964Y363805D01*
X569812Y366585D01*
X567685Y368712D01*
X564905Y369864D01*
X561895Y369864D01*
X559115Y368712D01*
X556988Y366585D01*
X555836Y363805D01*
X555836Y360795D01*
X556988Y358015D01*
X559115Y355888D01*
X561895Y354736D01*
G37*
G36*
X818162Y353720D02*
X819107Y353720D01*
X822260Y355026D01*
X824674Y357440D01*
X825980Y360593D01*
X825980Y361538D01*
X818162Y361538D01*
X818162Y353720D01*
G37*
G36*
X815693Y353720D02*
X816638Y353720D01*
X816638Y361538D01*
X808820Y361538D01*
X808820Y360593D01*
X810126Y357440D01*
X812540Y355026D01*
X815693Y353720D01*
G37*
G36*
X561895Y329336D02*
X564905Y329336D01*
X567685Y330488D01*
X569812Y332615D01*
X570964Y335395D01*
X570964Y338405D01*
X569812Y341185D01*
X567685Y343312D01*
X564905Y344464D01*
X561895Y344464D01*
X559115Y343312D01*
X556988Y341185D01*
X555836Y338405D01*
X555836Y335395D01*
X556988Y332615D01*
X559115Y330488D01*
X561895Y329336D01*
G37*
G36*
X561895Y303936D02*
X564905Y303936D01*
X567685Y305088D01*
X569812Y307215D01*
X570964Y309995D01*
X570964Y313005D01*
X569812Y315785D01*
X567685Y317912D01*
X564905Y319064D01*
X561895Y319064D01*
X559115Y317912D01*
X556988Y315785D01*
X555836Y313005D01*
X555836Y309995D01*
X556988Y307215D01*
X559115Y305088D01*
X561895Y303936D01*
G37*
G36*
X948762Y299362D02*
X956080Y299362D01*
X956080Y300207D01*
X954850Y303177D01*
X952577Y305450D01*
X949607Y306680D01*
X948762Y306680D01*
X948762Y299362D01*
G37*
G36*
X939920Y299362D02*
X947238Y299362D01*
X947238Y306680D01*
X946393Y306680D01*
X943423Y305450D01*
X941150Y303177D01*
X939920Y300207D01*
X939920Y299362D01*
G37*
G36*
X946393Y290520D02*
X947238Y290520D01*
X947238Y297838D01*
X939920Y297838D01*
X939920Y296993D01*
X941150Y294023D01*
X943423Y291750D01*
X946393Y290520D01*
G37*
G36*
X948762Y290520D02*
X949607Y290520D01*
X952577Y291750D01*
X954850Y294023D01*
X956080Y296993D01*
X956080Y297838D01*
X948762Y297838D01*
X948762Y290520D01*
G37*
G36*
X561895Y278536D02*
X564905Y278536D01*
X567685Y279688D01*
X569812Y281815D01*
X570964Y284595D01*
X570964Y287605D01*
X569812Y290385D01*
X567685Y292512D01*
X564905Y293664D01*
X561895Y293664D01*
X559115Y292512D01*
X556988Y290385D01*
X555836Y287605D01*
X555836Y284595D01*
X556988Y281815D01*
X559115Y279688D01*
X561895Y278536D01*
G37*
G36*
X946595Y266136D02*
X949405Y266136D01*
X952001Y267211D01*
X953989Y269199D01*
X955064Y271795D01*
X955064Y274605D01*
X953989Y277201D01*
X952001Y279189D01*
X949405Y280264D01*
X946595Y280264D01*
X943999Y279189D01*
X942011Y277201D01*
X940936Y274605D01*
X940936Y271795D01*
X942011Y269199D01*
X943999Y267211D01*
X946595Y266136D01*
G37*
G36*
X855561Y168156D02*
X874439Y168156D01*
X877800Y169548D01*
X880372Y172120D01*
X881764Y175481D01*
X881764Y179119D01*
X880372Y182480D01*
X877800Y185052D01*
X874776Y186305D01*
X873593Y187061D01*
X872662Y188352D01*
X872308Y189904D01*
X872587Y191472D01*
X873456Y192806D01*
X874776Y193696D01*
X877800Y194948D01*
X880372Y197520D01*
X881764Y200881D01*
X881764Y204519D01*
X880372Y207880D01*
X877800Y210452D01*
X874439Y211844D01*
X871033Y211844D01*
X869562Y212125D01*
X868227Y212993D01*
X867338Y214313D01*
X867225Y214586D01*
X826136Y255675D01*
X825281Y256944D01*
X824964Y258504D01*
X824964Y262205D01*
X823735Y265171D01*
X823436Y266510D01*
X823471Y266739D01*
X823433Y266731D01*
X821871Y267035D01*
X818905Y268264D01*
X815895Y268264D01*
X813115Y267112D01*
X810988Y264985D01*
X809836Y262205D01*
X809836Y259195D01*
X810988Y256415D01*
X813115Y254288D01*
X815895Y253136D01*
X819596Y253136D01*
X821097Y252844D01*
X822425Y251964D01*
X826230Y248159D01*
X827019Y247037D01*
X827398Y245490D01*
X827144Y243919D01*
X826297Y242571D01*
X824991Y241660D01*
X823433Y241331D01*
X821871Y241635D01*
X818905Y242864D01*
X815895Y242864D01*
X813115Y241712D01*
X810988Y239585D01*
X809836Y236805D01*
X809836Y233795D01*
X810988Y231015D01*
X813115Y228888D01*
X815895Y227736D01*
X818905Y227736D01*
X821685Y228888D01*
X822965Y230168D01*
X824174Y230997D01*
X825729Y231339D01*
X827294Y231047D01*
X828622Y230168D01*
X833704Y225085D01*
X834559Y223816D01*
X834876Y222256D01*
X834876Y186978D01*
X835275Y186014D01*
X843514Y177775D01*
X844478Y177376D01*
X844778Y177376D01*
X846250Y177095D01*
X847584Y176227D01*
X848474Y174907D01*
X849628Y172120D01*
X852200Y169548D01*
X855561Y168156D01*
G37*
G36*
X561895Y253136D02*
X564905Y253136D01*
X567685Y254288D01*
X569812Y256415D01*
X570964Y259195D01*
X570964Y262205D01*
X569812Y264985D01*
X567685Y267112D01*
X564905Y268264D01*
X561895Y268264D01*
X559115Y267112D01*
X556988Y264985D01*
X555836Y262205D01*
X555836Y259195D01*
X556988Y256415D01*
X559115Y254288D01*
X561895Y253136D01*
G37*
G36*
X143762Y227262D02*
X151080Y227262D01*
X151080Y228107D01*
X149850Y231077D01*
X147577Y233350D01*
X144607Y234580D01*
X143762Y234580D01*
X143762Y227262D01*
G37*
G36*
X134920Y227262D02*
X142238Y227262D01*
X142238Y234580D01*
X141393Y234580D01*
X138423Y233350D01*
X136150Y231077D01*
X134920Y228107D01*
X134920Y227262D01*
G37*
G36*
X143762Y218420D02*
X144607Y218420D01*
X147577Y219650D01*
X149850Y221923D01*
X151080Y224893D01*
X151080Y225738D01*
X143762Y225738D01*
X143762Y218420D01*
G37*
G36*
X141393Y218420D02*
X142238Y218420D01*
X142238Y225738D01*
X134920Y225738D01*
X134920Y224893D01*
X136150Y221923D01*
X138423Y219650D01*
X141393Y218420D01*
G37*
G36*
X431195Y206936D02*
X434005Y206936D01*
X436601Y208011D01*
X438589Y209999D01*
X439664Y212595D01*
X439664Y215405D01*
X438589Y218001D01*
X436601Y219989D01*
X434005Y221064D01*
X431195Y221064D01*
X428599Y219989D01*
X426611Y218001D01*
X425536Y215405D01*
X425536Y212595D01*
X426611Y209999D01*
X428599Y208011D01*
X431195Y206936D01*
G37*
G36*
X815895Y202336D02*
X818905Y202336D01*
X821685Y203488D01*
X823812Y205615D01*
X824964Y208395D01*
X824964Y211405D01*
X823812Y214185D01*
X821685Y216312D01*
X818905Y217464D01*
X815895Y217464D01*
X813115Y216312D01*
X810988Y214185D01*
X809836Y211405D01*
X809836Y208395D01*
X810988Y205615D01*
X813115Y203488D01*
X815895Y202336D01*
G37*
G36*
X449920Y189362D02*
X457238Y189362D01*
X457238Y196680D01*
X456393Y196680D01*
X453423Y195450D01*
X451150Y193177D01*
X449920Y190207D01*
X449920Y189362D01*
G37*
G36*
X458762Y189362D02*
X466080Y189362D01*
X466080Y190207D01*
X464850Y193177D01*
X462577Y195450D01*
X459607Y196680D01*
X458762Y196680D01*
X458762Y189362D01*
G37*
G36*
X75510Y187262D02*
X84538Y187262D01*
X84538Y196290D01*
X83353Y196290D01*
X79754Y194800D01*
X77000Y192046D01*
X75510Y188447D01*
X75510Y187262D01*
G37*
G36*
X431195Y181536D02*
X434005Y181536D01*
X436601Y182611D01*
X438589Y184599D01*
X439664Y187195D01*
X439664Y190005D01*
X438589Y192601D01*
X436601Y194589D01*
X434005Y195664D01*
X431195Y195664D01*
X428599Y194589D01*
X426611Y192601D01*
X425536Y190005D01*
X425536Y187195D01*
X426611Y184599D01*
X428599Y182611D01*
X431195Y181536D01*
G37*
G36*
X564162Y185262D02*
X571980Y185262D01*
X571980Y186207D01*
X570674Y189360D01*
X568260Y191774D01*
X565107Y193080D01*
X564162Y193080D01*
X564162Y185262D01*
G37*
G36*
X554820Y185262D02*
X562638Y185262D01*
X562638Y193080D01*
X561693Y193080D01*
X558540Y191774D01*
X556126Y189360D01*
X554820Y186207D01*
X554820Y185262D01*
G37*
G36*
X815895Y176936D02*
X818905Y176936D01*
X821685Y178088D01*
X823812Y180215D01*
X824964Y182995D01*
X824964Y186005D01*
X823812Y188785D01*
X821685Y190912D01*
X818905Y192064D01*
X815895Y192064D01*
X813115Y190912D01*
X810988Y188785D01*
X809836Y186005D01*
X809836Y182995D01*
X810988Y180215D01*
X813115Y178088D01*
X815895Y176936D01*
G37*
G36*
X83353Y176710D02*
X84538Y176710D01*
X84538Y185738D01*
X75510Y185738D01*
X75510Y184553D01*
X77000Y180954D01*
X79754Y178200D01*
X83353Y176710D01*
G37*
G36*
X564162Y175920D02*
X565107Y175920D01*
X568260Y177226D01*
X570674Y179640D01*
X571980Y182793D01*
X571980Y183738D01*
X564162Y183738D01*
X564162Y175920D01*
G37*
G36*
X561693Y175920D02*
X562638Y175920D01*
X562638Y183738D01*
X554820Y183738D01*
X554820Y182793D01*
X556126Y179640D01*
X558540Y177226D01*
X561693Y175920D01*
G37*
G36*
X815895Y151536D02*
X818905Y151536D01*
X821685Y152688D01*
X823812Y154815D01*
X824964Y157595D01*
X824964Y160605D01*
X823812Y163385D01*
X821685Y165512D01*
X818905Y166664D01*
X815895Y166664D01*
X813115Y165512D01*
X810988Y163385D01*
X809836Y160605D01*
X809836Y157595D01*
X810988Y154815D01*
X813115Y152688D01*
X815895Y151536D01*
G37*
G36*
X73362Y144762D02*
X84538Y144762D01*
X84538Y155938D01*
X82925Y155938D01*
X78538Y154121D01*
X75179Y150762D01*
X73362Y146375D01*
X73362Y144762D01*
G37*
G36*
X82925Y132062D02*
X84538Y132062D01*
X84538Y143238D01*
X73362Y143238D01*
X73362Y141625D01*
X75179Y137238D01*
X78538Y133879D01*
X82925Y132062D01*
G37*
G36*
X561895Y126136D02*
X564905Y126136D01*
X567685Y127288D01*
X569812Y129415D01*
X570964Y132195D01*
X570964Y135205D01*
X569812Y137985D01*
X567685Y140112D01*
X564905Y141264D01*
X561895Y141264D01*
X559115Y140112D01*
X556988Y137985D01*
X555836Y135205D01*
X555836Y132195D01*
X556988Y129415D01*
X559115Y127288D01*
X561895Y126136D01*
G37*
G36*
X815895Y100736D02*
X818905Y100736D01*
X821685Y101888D01*
X823812Y104015D01*
X824964Y106795D01*
X824964Y109805D01*
X823812Y112585D01*
X821685Y114712D01*
X818905Y115864D01*
X815895Y115864D01*
X813115Y114712D01*
X810988Y112585D01*
X809836Y109805D01*
X809836Y106795D01*
X810988Y104015D01*
X813115Y101888D01*
X815895Y100736D01*
G37*
G36*
X561895Y100736D02*
X564905Y100736D01*
X567685Y101888D01*
X569812Y104015D01*
X570964Y106795D01*
X570964Y109805D01*
X569812Y112585D01*
X567685Y114712D01*
X564905Y115864D01*
X561895Y115864D01*
X559115Y114712D01*
X556988Y112585D01*
X555836Y109805D01*
X555836Y106795D01*
X556988Y104015D01*
X559115Y101888D01*
X561895Y100736D01*
G37*
G36*
X83010Y102262D02*
X92038Y102262D01*
X92038Y111290D01*
X90853Y111290D01*
X87254Y109800D01*
X84500Y107046D01*
X83010Y103447D01*
X83010Y102262D01*
G37*
G36*
X90853Y91710D02*
X92038Y91710D01*
X92038Y100738D01*
X83010Y100738D01*
X83010Y99553D01*
X84500Y95954D01*
X87254Y93200D01*
X90853Y91710D01*
G37*
G36*
X159460Y82102D02*
X166238Y82102D01*
X166238Y91380D01*
X161495Y91380D01*
X160561Y90993D01*
X159847Y90279D01*
X159460Y89345D01*
X159460Y82102D01*
G37*
G36*
X167762Y82102D02*
X174540Y82102D01*
X174540Y89345D01*
X174153Y90279D01*
X173439Y90993D01*
X172505Y91380D01*
X167762Y91380D01*
X167762Y82102D01*
G37*
G36*
X561895Y75336D02*
X564905Y75336D01*
X567685Y76488D01*
X569812Y78615D01*
X570964Y81395D01*
X570964Y84405D01*
X569812Y87185D01*
X567685Y89312D01*
X564905Y90464D01*
X561895Y90464D01*
X559115Y89312D01*
X556988Y87185D01*
X555836Y84405D01*
X555836Y81395D01*
X556988Y78615D01*
X559115Y76488D01*
X561895Y75336D01*
G37*
G36*
X815895Y75336D02*
X818905Y75336D01*
X821685Y76488D01*
X823812Y78615D01*
X824964Y81395D01*
X824964Y84405D01*
X823812Y87185D01*
X821685Y89312D01*
X818905Y90464D01*
X815895Y90464D01*
X813115Y89312D01*
X810988Y87185D01*
X809836Y84405D01*
X809836Y81395D01*
X810988Y78615D01*
X813115Y76488D01*
X815895Y75336D01*
G37*
G36*
X33010Y72262D02*
X42038Y72262D01*
X42038Y81290D01*
X40853Y81290D01*
X37254Y79800D01*
X34500Y77046D01*
X33010Y73447D01*
X33010Y72262D01*
G37*
G36*
X167762Y71300D02*
X172505Y71300D01*
X173439Y71687D01*
X174153Y72401D01*
X174540Y73335D01*
X174540Y80578D01*
X167762Y80578D01*
X167762Y71300D01*
G37*
G36*
X161495Y71300D02*
X166238Y71300D01*
X166238Y80578D01*
X159460Y80578D01*
X159460Y73335D01*
X159847Y72401D01*
X160561Y71687D01*
X161495Y71300D01*
G37*
G36*
X40853Y61710D02*
X42038Y61710D01*
X42038Y70738D01*
X33010Y70738D01*
X33010Y69553D01*
X34500Y65954D01*
X37254Y63200D01*
X40853Y61710D01*
G37*
G36*
X815895Y49936D02*
X818905Y49936D01*
X821685Y51088D01*
X823812Y53215D01*
X824964Y55995D01*
X824964Y59005D01*
X823812Y61785D01*
X821685Y63912D01*
X818905Y65064D01*
X815895Y65064D01*
X813115Y63912D01*
X810988Y61785D01*
X809836Y59005D01*
X809836Y55995D01*
X810988Y53215D01*
X813115Y51088D01*
X815895Y49936D01*
G37*
%LPD*%
G36*
X189955Y9477D02*
X188395Y9160D01*
X13160Y9160D01*
X11718Y9429D01*
X10377Y10287D01*
X9477Y11600D01*
X9160Y13160D01*
X9160Y39068D01*
X9406Y40450D01*
X10243Y41805D01*
X11541Y42726D01*
X13096Y43068D01*
X14661Y42776D01*
X15988Y41897D01*
X36908Y20977D01*
X38938Y20136D01*
X116662Y20136D01*
X118692Y20977D01*
X129621Y31906D01*
X130890Y32761D01*
X132450Y33078D01*
X132872Y33078D01*
X136887Y34741D01*
X139959Y37813D01*
X140989Y40299D01*
X141811Y41551D01*
X143124Y42451D01*
X144684Y42768D01*
X170784Y42768D01*
X172814Y43609D01*
X187172Y57967D01*
X188381Y58796D01*
X189936Y59138D01*
X191501Y58846D01*
X192828Y57967D01*
X195173Y55622D01*
X195989Y54442D01*
X196343Y52890D01*
X196064Y51322D01*
X195195Y49988D01*
X193875Y49098D01*
X191545Y48133D01*
X188687Y45275D01*
X187140Y41541D01*
X187140Y32662D01*
X198062Y32662D01*
X198062Y31138D01*
X187140Y31138D01*
X187140Y22259D01*
X188687Y18525D01*
X191223Y15988D01*
X192026Y14837D01*
X192393Y13288D01*
X192126Y11718D01*
X191268Y10377D01*
X189955Y9477D01*
G37*
D10*
X563400Y514700D03*
D11*
X563400Y489300D03*
X563400Y463900D03*
X563400Y438500D03*
X563400Y413100D03*
X563400Y387700D03*
X563400Y362300D03*
X563400Y336900D03*
X563400Y311500D03*
X563400Y286100D03*
X563400Y260700D03*
X563400Y235300D03*
X563400Y209900D03*
X563400Y184500D03*
X563400Y159100D03*
X563400Y133700D03*
X563400Y108300D03*
X563400Y82900D03*
X563400Y57500D03*
X817400Y57500D03*
X817400Y82900D03*
X817400Y108300D03*
X817400Y133700D03*
X817400Y159100D03*
X817400Y184500D03*
X817400Y209900D03*
X817400Y235300D03*
X817400Y260700D03*
X817400Y286100D03*
X817400Y311500D03*
X817400Y336900D03*
X817400Y362300D03*
X817400Y387700D03*
X817400Y413100D03*
X817400Y438500D03*
X817400Y463900D03*
X817400Y489300D03*
X817400Y514700D03*
D10*
X507600Y354500D03*
D11*
X507600Y379900D03*
X507600Y405300D03*
X507600Y430700D03*
X507600Y456100D03*
X507600Y481500D03*
X507600Y506900D03*
X507600Y532300D03*
X507600Y557700D03*
D12*
X278000Y239400D03*
D13*
X278000Y214000D03*
X278000Y188600D03*
X303400Y239400D03*
X303400Y214000D03*
X303400Y188600D03*
X342600Y138000D03*
X368000Y138000D03*
X393400Y138000D03*
X432600Y188600D03*
X432600Y214000D03*
X432600Y239400D03*
X458000Y188600D03*
X458000Y214000D03*
X458000Y239400D03*
D12*
X143000Y381500D03*
D13*
X48000Y381500D03*
X48000Y226500D03*
X143000Y226500D03*
D14*
X48000Y534000D03*
X73000Y534000D03*
D12*
X948000Y324000D03*
D13*
X948000Y298600D03*
X948000Y273200D03*
X948000Y247800D03*
X948000Y222400D03*
X948000Y197000D03*
X948000Y171600D03*
X998000Y399400D03*
X998000Y424800D03*
X998000Y450200D03*
D12*
X998000Y475600D03*
X948000Y501000D03*
D13*
X948000Y475600D03*
X948000Y450200D03*
X948000Y424800D03*
X948000Y399400D03*
X948000Y374000D03*
D15*
X100700Y474000D03*
X75300Y474000D03*
D16*
X100700Y429000D03*
X75300Y429000D03*
X110700Y186500D03*
X85300Y186500D03*
D15*
X110700Y144000D03*
X85300Y144000D03*
D16*
X118200Y101500D03*
X92800Y101500D03*
X68200Y71500D03*
X42800Y71500D03*
D15*
X130700Y44000D03*
X105300Y44000D03*
D17*
X167000Y81340D03*
X190000Y81340D03*
X213000Y81340D03*
D18*
X190000Y144340D03*
D19*
X872380Y427300D02*
X887620Y427300D01*
X887620Y452700D02*
X872380Y452700D01*
X872620Y177300D02*
X857380Y177300D01*
X857380Y202700D02*
X872620Y202700D01*
X992380Y248100D02*
X1007620Y248100D01*
X1007620Y222700D02*
X992380Y222700D01*
X992380Y197300D02*
X1007620Y197300D01*
X1007620Y171900D02*
X992380Y171900D01*
X522620Y203100D02*
X507380Y203100D01*
X507380Y177700D02*
X522620Y177700D01*
X522620Y152300D02*
X507380Y152300D01*
X507380Y126900D02*
X522620Y126900D01*
X222700Y39520D02*
X222700Y24280D01*
X197300Y24280D02*
X197300Y39520D01*
D20*
X880150Y452850D02*
X945350Y452850D01*
X880150Y452850D02*
X880000Y452700D01*
X858800Y463900D02*
X817400Y463900D01*
X870000Y452700D02*
X880000Y452700D01*
X870000Y452700D02*
X858800Y463900D01*
X945350Y452850D02*
X948000Y450200D01*
X948000Y424800D02*
X882500Y424800D01*
X880000Y427300D01*
X840400Y387700D02*
X817400Y387700D01*
X840400Y387700D02*
X880000Y427300D01*
X862300Y180000D02*
X865000Y177300D01*
X862300Y180000D02*
X845000Y180000D01*
X837500Y187500D01*
X837500Y225000D01*
X827200Y235300D01*
X817400Y235300D01*
X865000Y213100D02*
X865000Y202700D01*
X865000Y213100D02*
X817400Y260700D01*
D21*
X102846Y504154D02*
X73000Y534000D01*
X102846Y504154D02*
X102846Y484000D01*
X100700Y474000D01*
X102846Y464000D02*
X102846Y439000D01*
D22*
X100700Y429000D01*
D21*
X102846Y464000D02*
X100700Y474000D01*
D23*
X100700Y429000D02*
X100700Y396700D01*
X85500Y381500D01*
X48000Y381500D01*
D21*
X73154Y484000D02*
X73154Y496346D01*
X73154Y484000D02*
X75300Y474000D01*
X73154Y496346D02*
X48000Y521500D01*
X48000Y534000D01*
X75300Y474000D02*
X73154Y464000D01*
X73154Y439000D01*
D22*
X75300Y429000D01*
D24*
X85300Y186500D02*
X85300Y144000D01*
D21*
X48000Y534000D02*
X48000Y556000D01*
X143000Y556000D01*
X460000Y556000D01*
X460000Y544895D01*
X497600Y506900D02*
X507600Y506900D01*
X497600Y506900D02*
X460000Y544895D01*
D23*
X948000Y374000D02*
X963500Y358500D01*
X963500Y309100D01*
X953000Y298600D01*
X948000Y298600D01*
X591000Y247000D02*
X536400Y247000D01*
D21*
X591000Y247000D02*
X591000Y191000D01*
X584500Y184500D01*
X563400Y184500D01*
X501600Y500900D02*
X507600Y506900D01*
X501600Y500900D02*
X489000Y488300D01*
X489000Y399000D01*
D23*
X495500Y392500D01*
X536400Y392500D01*
D21*
X536400Y247000D01*
D23*
X912400Y298600D02*
X948000Y298600D01*
X912400Y298600D02*
X848700Y362300D01*
D22*
X817400Y362300D01*
D25*
X814435Y362300D01*
D22*
X568174Y501374D01*
X520000Y501374D01*
X515000Y501374D01*
X513126Y501374D01*
D21*
X507600Y506900D01*
X143000Y556000D02*
X143000Y381500D01*
X143000Y280000D02*
X143000Y226500D01*
X143000Y280000D02*
X40000Y280000D01*
X506724Y217324D02*
X536400Y247000D01*
X506724Y217324D02*
X498988Y217324D01*
X470264Y188600D02*
X458000Y188600D01*
X470264Y188600D02*
X498988Y217324D01*
X40000Y280000D02*
X40000Y354826D01*
D26*
X39436Y211083D02*
X39436Y201917D01*
X39436Y211083D02*
X40000Y211647D01*
X54853Y186500D02*
X85300Y186500D01*
X54853Y186500D02*
X39436Y201917D01*
D22*
X91800Y102500D02*
X92800Y101500D01*
X91800Y107500D02*
X85300Y114000D01*
X85300Y144000D01*
X91800Y107500D02*
X91800Y102500D01*
D21*
X40000Y211647D02*
X40000Y212326D01*
X33356Y218970D01*
X33356Y241530D01*
X40000Y248174D01*
X40000Y280000D01*
X40000Y354826D02*
X35856Y358970D01*
X35856Y521856D01*
X48000Y534000D01*
D22*
X99300Y87500D02*
X97824Y86024D01*
X52324Y86024D02*
X42800Y76500D01*
X42800Y71500D01*
X52324Y86024D02*
X97824Y86024D01*
D26*
X60300Y44000D02*
X42800Y61500D01*
X42800Y71500D01*
X60300Y44000D02*
X105300Y44000D01*
X112960Y81340D02*
X92800Y101500D01*
X112960Y81340D02*
X167000Y81340D01*
X501600Y500900D02*
X514526Y500900D01*
X515000Y501374D01*
X514474Y506900D02*
X507600Y506900D01*
X514474Y506900D02*
X520000Y501374D01*
D21*
X928000Y399400D02*
X948000Y399400D01*
X928000Y399400D02*
X928000Y376000D01*
X928000Y324000D01*
X948000Y324000D01*
D25*
X563726Y514516D02*
X563400Y514700D01*
D22*
X563726Y514516D02*
X592828Y498081D01*
X809000Y376000D01*
X928000Y376000D01*
D21*
X258515Y254226D02*
X230290Y226001D01*
X230290Y175177D01*
X473826Y219158D02*
X473826Y254226D01*
X258515Y254226D01*
X468668Y214000D02*
X473826Y219158D01*
X468668Y214000D02*
X458000Y214000D01*
D25*
X563000Y514516D02*
X563726Y514516D01*
D21*
X507600Y354500D02*
X507600Y288000D01*
X473826Y254226D01*
D26*
X563000Y580578D02*
X27234Y580578D01*
X563000Y580578D02*
X563000Y514516D01*
X190000Y81340D02*
X190000Y68607D01*
X169685Y48292D01*
D21*
X190000Y144340D02*
X220837Y175177D01*
X230290Y175177D01*
D26*
X190000Y144340D02*
X230000Y104340D01*
X230000Y60000D01*
X198607Y60000D01*
X190000Y68607D01*
D27*
X222700Y31900D02*
X230000Y39200D01*
X230000Y60000D01*
D26*
X40037Y25660D02*
X15026Y50671D01*
X15026Y568370D01*
X27234Y580578D01*
X130700Y44000D02*
X130700Y40797D01*
X115563Y25660D01*
X40037Y25660D01*
X130700Y44000D02*
X134992Y48292D01*
X169685Y48292D01*
X103200Y71500D02*
X68200Y71500D01*
X103200Y71500D02*
X130700Y44000D01*
D22*
X110700Y144000D02*
X110700Y186500D01*
X109350Y226500D02*
X48000Y226500D01*
X110700Y222204D02*
X110700Y186500D01*
X110700Y222204D02*
X109350Y226500D01*
D25*
X213000Y83840D02*
X213000Y81340D01*
D22*
X213000Y83840D02*
X187840Y109000D01*
X128200Y109000D01*
X118200Y121500D02*
X110700Y129000D01*
X110700Y144000D01*
X118200Y121500D02*
X118200Y101500D01*
X120700Y101500D02*
X128200Y109000D01*
X120700Y101500D02*
X118200Y101500D01*
D20*
X938000Y247800D02*
X948000Y247800D01*
X938000Y247800D02*
X848900Y336900D01*
X817400Y336900D01*
X948000Y247800D02*
X999700Y247800D01*
X1000000Y248100D01*
X1021334Y539300D02*
X907400Y539300D01*
X857400Y489300D01*
X1021334Y539300D02*
X1021334Y244034D01*
X857400Y489300D02*
X817400Y489300D01*
X948000Y222400D02*
X999700Y222400D01*
X1000000Y222700D01*
X1021334Y244034D01*
X948000Y197000D02*
X931900Y197000D01*
X817400Y311500D01*
X948000Y197000D02*
X999700Y197000D01*
X1000000Y197300D01*
X948000Y171600D02*
X931900Y171600D01*
X817400Y286100D01*
X948000Y171600D02*
X999700Y171600D01*
X1000000Y171900D01*
X486100Y161300D02*
X310700Y161300D01*
X303400Y168600D01*
X303400Y188600D01*
X560900Y207400D02*
X563400Y209900D01*
X560900Y207400D02*
X552200Y207400D01*
X515000Y177700D02*
X502500Y177700D01*
X486100Y161300D01*
X522500Y177700D02*
X552200Y207400D01*
X522500Y177700D02*
X515000Y177700D01*
X544100Y152300D02*
X550900Y159100D01*
X305000Y151600D02*
X278000Y178600D01*
X278000Y188600D01*
X550900Y159100D02*
X563400Y159100D01*
X544100Y152300D02*
X515000Y152300D01*
X514300Y151600D02*
X305000Y151600D01*
X514300Y151600D02*
X515000Y152300D01*
X475174Y170774D02*
X332294Y170774D01*
X319291Y201000D01*
X288574Y201000D01*
X278000Y211574D01*
X278000Y214000D01*
X560900Y232800D02*
X563400Y235300D01*
X560900Y232800D02*
X544700Y232800D01*
X515000Y203100D02*
X507500Y203100D01*
X475174Y170774D01*
X515000Y203100D02*
X544700Y232800D01*
X708126Y44426D02*
X797400Y133700D01*
X278000Y239400D02*
X258000Y239400D01*
X251226Y232626D01*
X251226Y113458D01*
X320258Y44426D02*
X515000Y44426D01*
X708126Y44426D01*
X320258Y44426D02*
X251226Y113458D01*
X797400Y133700D02*
X817400Y133700D01*
X515000Y126900D02*
X515000Y44426D01*
M02*
