G04 EAGLE Gerber RS-274X export*
G75*
%MOMM*%
%FSLAX34Y34*%
%LPD*%
%INSoldermask Bottom*%
%IPPOS*%
%AMOC8*
5,1,8,0,0,1.08239X$1,22.5*%
G01*
G04 Define Apertures*
%ADD10R,1.411200X1.411200*%
%ADD11C,1.411200*%
%ADD12R,1.311200X1.311200*%
%ADD13C,1.311200*%
%ADD14C,1.711200*%
%ADD15C,2.082800*%
%ADD16C,1.653200*%
%ADD17C,1.727200*%
D10*
X563400Y514700D03*
D11*
X563400Y489300D03*
X563400Y463900D03*
X563400Y438500D03*
X563400Y413100D03*
X563400Y387700D03*
X563400Y362300D03*
X563400Y336900D03*
X563400Y311500D03*
X563400Y286100D03*
X563400Y260700D03*
X563400Y235300D03*
X563400Y209900D03*
X563400Y184500D03*
X563400Y159100D03*
X563400Y133700D03*
X563400Y108300D03*
X563400Y82900D03*
X563400Y57500D03*
X817400Y57500D03*
X817400Y82900D03*
X817400Y108300D03*
X817400Y133700D03*
X817400Y159100D03*
X817400Y184500D03*
X817400Y209900D03*
X817400Y235300D03*
X817400Y260700D03*
X817400Y286100D03*
X817400Y311500D03*
X817400Y336900D03*
X817400Y362300D03*
X817400Y387700D03*
X817400Y413100D03*
X817400Y438500D03*
X817400Y463900D03*
X817400Y489300D03*
X817400Y514700D03*
D10*
X507600Y354500D03*
D11*
X507600Y379900D03*
X507600Y405300D03*
X507600Y430700D03*
X507600Y456100D03*
X507600Y481500D03*
X507600Y506900D03*
X507600Y532300D03*
X507600Y557700D03*
D12*
X278000Y239400D03*
D13*
X278000Y214000D03*
X278000Y188600D03*
X303400Y239400D03*
X303400Y214000D03*
X303400Y188600D03*
X342600Y138000D03*
X368000Y138000D03*
X393400Y138000D03*
X432600Y188600D03*
X432600Y214000D03*
X432600Y239400D03*
X458000Y188600D03*
X458000Y214000D03*
X458000Y239400D03*
D12*
X143000Y381500D03*
D13*
X48000Y381500D03*
X48000Y226500D03*
X143000Y226500D03*
D14*
X48000Y534000D03*
X73000Y534000D03*
D12*
X948000Y324000D03*
D13*
X948000Y298600D03*
X948000Y273200D03*
X948000Y247800D03*
X948000Y222400D03*
X948000Y197000D03*
X948000Y171600D03*
X998000Y399400D03*
X998000Y424800D03*
X998000Y450200D03*
D12*
X998000Y475600D03*
X948000Y501000D03*
D13*
X948000Y475600D03*
X948000Y450200D03*
X948000Y424800D03*
X948000Y399400D03*
X948000Y374000D03*
D15*
X100700Y474000D03*
X75300Y474000D03*
D16*
X100700Y429000D03*
X75300Y429000D03*
X110700Y186500D03*
X85300Y186500D03*
D15*
X110700Y144000D03*
X85300Y144000D03*
D16*
X118200Y101500D03*
X92800Y101500D03*
X68200Y71500D03*
X42800Y71500D03*
D15*
X130700Y44000D03*
X105300Y44000D03*
D17*
X872380Y427300D02*
X887620Y427300D01*
X887620Y452700D02*
X872380Y452700D01*
X872620Y177300D02*
X857380Y177300D01*
X857380Y202700D02*
X872620Y202700D01*
X992380Y248100D02*
X1007620Y248100D01*
X1007620Y222700D02*
X992380Y222700D01*
X992380Y197300D02*
X1007620Y197300D01*
X1007620Y171900D02*
X992380Y171900D01*
X522620Y203100D02*
X507380Y203100D01*
X507380Y177700D02*
X522620Y177700D01*
X522620Y152300D02*
X507380Y152300D01*
X507380Y126900D02*
X522620Y126900D01*
X222700Y39520D02*
X222700Y24280D01*
X197300Y24280D02*
X197300Y39520D01*
M02*
